# xmcd
# Track frame offsets:
# 150
# 12225
# 26925
# 43648
# 55602
# 74397
# 86695
# 98866
# 122398
# 136766
# 155606
# 172741
#
# Disc length: 2522 seconds
# Revision: 0
# Processed by: cddbd v1.4PL0 Copyright (c) Steve Scherf et al.
# Submitted via: VisiTrax 2.9.5.180 - For more info visit www.synapsa.com
#
DISCID=9109d80c
DTITLE=Mister Jack and the Daniels - On a dusty road
DYEAR=1900
DGENRE=
TTITLE0=Let me in
TTITLE1=No time to kill
TTITLE2=Breakin' loose
TTITLE3=Hey bartender
TTITLE4=A better world
TTITLE5=Ain't nobody's cryin' man
TTITLE6=Tennessee stud
TTITLE7=Sweet sixteen
TTITLE8=My wife thinks you're dead
TTITLE9=Why don't you leave me
TTITLE10=Hillbilly highway
TTITLE11=Hot dance romance
EXTD=
EXTT0=
EXTT1=
EXTT2=
EXTT3=
EXTT4=
EXTT5=
EXTT6=
EXTT7=
EXTT8=
EXTT9=
EXTT10=
EXTT11=
PLAYORDER=
